HIERARCHY
ROOT hip
{
	OFFSET 0.000000 0.000000 0.000000 
	CHANNELS 6 Xposition Yposition Zposition Xrotation Zrotation Yrotation
	JOINT abdomen
	{
		OFFSET 0.000000 3.402643 0.000000 
		CHANNELS 3 Xrotation Zrotation Yrotation
		JOINT chest
		{
			OFFSET 0.000000 8.438565 -0.680529 
			CHANNELS 3 Xrotation Zrotation Yrotation
			JOINT neck
			{
				OFFSET 0.000000 10.207942 -0.272212 
				CHANNELS 3 Xrotation Zrotation Yrotation
				JOINT head
				{
					OFFSET 0.000000 3.130431 0.000000 
					CHANNELS 3 Xrotation Zrotation Yrotation
					End Site
					{
						OFFSET 0.000000 3.130435 0.000000 
					}
				}
			}
			JOINT lCollar
			{
				OFFSET 3.470700 6.669187 -0.816635 
				CHANNELS 3 Yrotation Zrotation Xrotation
				JOINT lShldr
				{
					OFFSET 3.198488 0.000000 0.000000 
					CHANNELS 3 Zrotation Yrotation Xrotation
					JOINT lForeArm
					{
						OFFSET 10.139888 0.000000 0.000000 
						CHANNELS 3 Yrotation Zrotation Xrotation
						JOINT lHand
						{
							OFFSET 8.370511 0.000000 0.000000 
							CHANNELS 3 Zrotation Yrotation Xrotation
							End Site
							{
								OFFSET 4.083176 0.000000 0.000000 
							}
						}
					}
				}
			}
			JOINT rCollar
			{
				OFFSET -3.470700 6.669187 -0.816635 
				CHANNELS 3 Yrotation Zrotation Xrotation
				JOINT rShldr
				{
					OFFSET -3.198488 0.000000 0.000000 
					CHANNELS 3 Zrotation Yrotation Xrotation
					JOINT rForeArm
					{
						OFFSET -10.139888 0.000000 0.000000 
						CHANNELS 3 Yrotation Zrotation Xrotation
						JOINT rHand
						{
							OFFSET -8.370511 0.000000 0.000000 
							CHANNELS 3 Zrotation Yrotation Xrotation
							End Site
							{
								OFFSET -4.083176 0.000000 0.000000 
							}
						}
					}
				}
			}
		}
	}
	JOINT lThigh
	{
		OFFSET 5.308129 -1.633274 1.361059 
		CHANNELS 3 Xrotation Zrotation Yrotation
		JOINT lShin
		{
			OFFSET -2.041588 -20.007561 0.000000 
			CHANNELS 3 Xrotation Zrotation Yrotation
			JOINT lFoot
			{
				OFFSET 0.000000 -19.190928 -1.224953 
				CHANNELS 3 Xrotation Yrotation Zrotation
				End Site
				{
					OFFSET 0.000000 -2.449906 4.627600 
				}
			}
		}
	}
	JOINT rThigh
	{
		OFFSET -5.308129 -1.633274 1.361059 
		CHANNELS 3 Xrotation Zrotation Yrotation
		JOINT rShin
		{
			OFFSET 2.041588 -20.007561 0.000000 
			CHANNELS 3 Xrotation Zrotation Yrotation
			JOINT rFoot
			{
				OFFSET 0.000000 -19.190928 -1.224953 
				CHANNELS 3 Xrotation Yrotation Zrotation
				End Site
				{
					OFFSET 0.000000 -2.449906 4.627600 
				}
			}
		}
	}
}
MOTION
Frames: 15
Frame Time: 0.033333
8.119431 52.760723 77.743385 -1.767578 -0.537109 11.953143 26.957300 -17.474207 0.981757 -16.582031 12.988282 8.332274 51.553619 8.070152 2.616707 -70.371094 1.650391 -13.720421 2.000000 -2.000000 0.000000 -76.103508 1.464844 8.193610 -115.520844 24.928926 53.458897 -30.052149 19.710241 -21.038017 -2.000000 2.000000 0.000000 80.380859 -16.113281 13.141822 52.002781 1.657761 -1.640667 9.393838 -56.747211 -15.129934 -17.414825 9.673420 2.998343 33.476254 -4.854239 -3.005596 18.147165 18.456696 -2.023870 12.323420 3.612647 -22.957045 -5.062750 5.812799 -0.466519 1.757043 -7.287595 -1.830520 
8.344824 52.620327 80.069534 -1.240234 -0.175781 12.988251 26.874212 -19.004744 2.383947 -16.455078 12.128907 8.867188 51.553619 8.070152 2.616707 -70.126953 2.812500 -17.118662 2.000000 -2.000000 0.000000 -76.103508 1.464844 8.193610 -115.520844 24.928926 53.458897 -30.296595 20.382296 -18.964310 -2.000000 2.000000 0.000000 78.437500 -13.027344 11.511471 53.096508 1.307236 -2.003595 4.628749 -57.036415 -11.268304 -15.717080 6.735527 4.157649 19.035950 -5.490538 -1.906450 12.681777 16.402983 0.510013 14.819776 3.874008 -23.885910 -5.061161 5.820152 -0.603678 -0.131867 -7.031105 -1.790664 
8.835016 52.269024 82.302200 -0.537109 -0.175781 14.238281 26.368906 -19.840296 3.244404 -15.937500 11.748048 9.423829 51.553619 8.070152 2.616707 -69.375000 3.261719 -19.697266 2.000000 -2.000000 0.000000 -76.103508 1.464844 8.193610 -115.520844 24.928926 53.458897 -31.215744 21.427679 -17.491770 -2.000000 2.000000 0.000000 75.917969 -10.410156 7.820503 54.155674 1.336397 -2.168135 -0.926206 -58.141861 -7.681768 -12.262185 3.543702 4.753458 2.602858 -5.941780 -0.565571 9.961599 13.926929 2.752635 16.976490 4.204849 -24.802147 -5.060920 5.810429 -0.290658 -1.842668 -7.108125 -0.886265 
9.512936 51.846844 84.257576 0.000000 -0.361328 15.468751 25.675009 -19.946901 3.870876 -15.400392 11.718751 9.892579 51.553619 8.070152 2.616707 -68.125000 3.339844 -21.972656 2.000000 -2.000000 0.000000 -76.103508 1.464844 8.193610 -115.520844 24.928926 53.458897 -32.032768 22.333715 -16.349894 -2.000000 2.000000 0.000000 74.111328 -8.750000 3.523907 55.017147 1.505706 -1.884228 -6.060146 -58.537754 -3.645916 -9.183417 1.902500 3.682814 -9.527645 -5.896164 0.756053 17.069811 11.223594 0.880751 19.087868 4.079502 -25.615841 -5.051217 5.802377 -0.611470 -3.641806 -7.443573 -0.087009 
10.103396 51.424248 86.715195 0.351563 -0.351562 16.318316 24.855053 -19.986120 4.345241 -14.687501 11.669922 10.380858 51.553619 8.070152 2.616707 -66.904297 3.261719 -24.013674 2.000000 -2.000000 0.000000 -76.103508 1.464844 8.193610 -115.520844 24.928926 53.458897 -32.867088 22.273539 -16.577662 -2.000000 2.000000 0.000000 73.476563 -7.978516 -1.720104 55.578053 1.173965 -2.402689 -8.236531 -57.029579 -1.842186 -8.955365 0.321387 2.227888 -14.461674 -5.820093 1.084898 18.252672 9.711912 0.833525 20.402035 3.764390 -26.876314 -0.824676 5.807224 0.144293 -4.975797 -7.646911 -0.232150 
10.791487 51.039810 88.678925 0.703125 0.166016 16.689455 24.047787 -20.185373 4.743243 -14.130859 11.806641 10.888673 51.553619 8.070152 2.616707 -65.683594 2.998047 -25.644022 2.000000 -2.000000 0.000000 -76.103508 1.464844 8.193610 -115.520844 24.928926 53.458897 -33.445427 21.921797 -17.059740 -2.000000 2.000000 0.000000 73.974609 -7.998047 -7.999406 56.102467 1.363275 -2.293692 -8.801560 -55.579174 -1.497075 -9.593633 -1.113167 0.261935 -17.122482 -5.788927 1.488230 18.365917 8.739067 1.185059 21.331648 2.340210 -27.870115 4.285287 5.797346 0.518525 -5.115849 -7.609773 -1.213676 
11.342544 50.663853 91.596031 0.527344 1.386719 16.171877 23.434753 -20.384541 5.141313 -13.759767 11.953125 11.191407 51.553619 8.070152 2.616707 -64.472656 2.910156 -27.167471 2.000000 -2.000000 0.000000 -76.103508 1.464844 8.193610 -115.520844 24.928926 53.458897 -33.827515 21.700365 -17.784979 -2.000000 2.000000 0.000000 75.175781 -7.890625 -12.128906 56.451859 1.182683 -2.216191 -8.117508 -54.391605 -1.850875 -9.499354 -2.528767 -1.042302 -16.598120 -5.828908 1.309900 14.721621 6.850829 1.744279 23.024467 0.740391 -28.382605 7.662395 5.759773 0.718669 -3.627711 -7.134964 -1.691880 
11.573251 50.132679 94.445114 0.166016 2.968750 15.302735 23.144873 -21.677519 5.770571 -13.925781 12.138673 11.201172 51.553619 8.070152 2.616707 -63.896488 3.203125 -28.623051 2.000000 -2.000000 0.000000 -76.103508 1.464844 8.193610 -115.520844 24.928926 53.458897 -34.221230 22.143986 -17.622318 -2.000000 2.000000 0.000000 77.050781 -7.675781 -14.014974 56.105114 1.183147 -2.392378 -6.045316 -54.172195 -2.447809 -6.404426 -3.094783 -2.040417 -16.583750 -5.807808 1.325164 17.679419 9.266962 0.719003 26.769316 0.113586 -28.526279 6.409572 5.723944 0.909032 0.239843 -9.731090 -8.900059 
11.497629 50.310875 95.838226 -0.361328 4.902344 14.013671 23.147766 -23.211967 6.058447 -14.101563 12.324219 10.859377 51.553619 8.070152 2.616707 -63.554684 3.027344 -28.915503 2.000000 -2.000000 0.000000 -76.103508 1.464844 8.193610 -115.520844 24.928926 53.458897 -34.343441 22.666193 -17.077316 -2.000000 2.000000 0.000000 79.033203 -7.363281 -14.093047 55.575657 1.364410 -2.313183 -2.956516 -54.306282 -3.930888 -7.856374 -4.099340 -1.732144 -7.583210 -5.953496 0.322037 16.422604 10.753588 -0.123025 30.530472 -0.198598 -27.886375 3.762964 5.579104 0.586564 6.748291 -14.086075 -16.181622 
11.630877 51.073151 97.495430 -1.064453 6.650391 12.529298 23.481432 -23.119503 5.463642 -14.443360 12.519532 10.478517 51.553619 8.070152 2.616707 -62.695309 0.712891 -26.142458 2.000000 -2.000000 0.000000 -76.103508 1.464844 8.193610 -115.520844 24.928926 53.458897 -34.871639 22.616352 -17.909445 -2.000000 2.000000 0.000000 79.316406 -7.177735 -11.787111 55.017128 1.515455 -1.883659 0.945077 -54.022762 -6.035619 -6.370914 -4.995594 -0.397113 -3.893713 -5.972670 -0.400566 18.016108 12.345487 -1.056331 31.088648 -3.068133 -26.971458 6.396398 5.772075 0.743365 17.985842 -17.538363 -21.048969 
12.009041 51.464397 99.547562 -1.611328 8.076172 11.378325 24.338266 -21.306187 3.797708 -14.804688 12.705079 9.902344 51.553619 8.070152 2.616707 -61.806648 -3.359375 -21.181643 2.000000 -2.000000 0.000000 -76.103508 1.464844 8.193610 -115.520844 24.928926 53.458897 -34.952080 21.827606 -19.152607 -2.000000 2.000000 0.000000 77.695313 -7.207031 -7.491458 54.331173 1.345578 -2.157822 4.084602 -54.240028 -7.450230 -4.469446 -6.050867 1.201707 -0.214623 -5.969626 -0.273691 12.791583 11.561724 -1.417367 21.395893 -8.711179 -25.485239 20.340790 5.383613 2.343712 23.546240 -24.785982 -17.483641 
12.526647 51.809330 101.654785 -1.972656 8.593750 10.419922 25.272545 -18.820406 1.664719 -14.960938 13.056641 9.453126 51.553619 8.070152 2.616707 -61.542969 -7.734374 -15.343113 2.000000 -2.000000 0.000000 -76.103508 1.464844 8.193610 -115.520844 24.928926 53.458897 -34.765900 20.990353 -21.139656 -2.000000 2.000000 0.000000 76.435547 -7.128906 -3.780507 53.979889 1.336397 -2.168135 5.846197 -54.720512 -8.464543 -1.959955 -6.789088 3.443852 1.882078 -6.341680 -0.480487 8.445265 10.651031 -0.830896 6.374631 -14.939834 -22.276321 39.131680 3.862061 3.355979 28.771194 -29.857841 -2.341339 
13.255782 52.141499 103.787331 -1.972656 8.251954 10.244142 26.152586 -15.876619 -0.539606 -15.302735 13.251953 8.886720 51.553619 8.070152 2.616707 -61.777348 -11.357421 -9.941407 2.000000 -2.000000 0.000000 -76.103508 1.464844 8.193610 -115.520844 24.928926 53.458897 -34.650013 19.813580 -22.970720 -2.000000 2.000000 0.000000 77.353516 -7.158204 -1.309811 52.902855 1.447703 -2.063874 5.153016 -56.199974 -8.882865 0.458875 -6.725977 5.522459 2.613523 -6.341031 -0.558517 4.749144 8.709064 -0.585546 -5.439734 -19.200993 -18.452627 51.268486 3.218166 4.347754 31.369894 -30.254650 8.430020 
14.220402 52.348354 105.918510 -1.611328 6.650391 10.352694 27.032181 -12.822243 -2.840621 -15.458984 13.613281 8.400738 51.553619 8.070152 2.616707 -62.490234 -14.062497 -4.758233 2.000000 -2.000000 0.000000 -76.103508 1.464844 8.193610 -115.520844 24.928926 53.458897 -34.532700 18.646561 -25.201309 -2.000000 2.000000 0.000000 79.677734 -7.304688 0.389383 51.502632 1.468987 -1.925485 3.372055 -57.976673 -9.455320 3.122509 -5.950841 5.862696 1.919632 -6.367850 0.013167 3.114824 7.962554 -0.094892 -10.916777 -20.617723 -16.954580 52.461693 3.105112 4.255342 28.386719 -26.221262 7.234758 
15.246818 52.486870 108.128365 -1.240234 4.726563 10.791821 27.495897 -9.856083 -4.914138 -15.810548 13.798829 7.841798 51.553619 8.070152 2.616707 -63.642582 -15.839842 -0.224610 2.000000 -2.000000 0.000000 -76.103508 1.464844 8.193610 -115.520844 24.928926 53.458897 -33.904140 17.755051 -27.128937 -2.000000 2.000000 0.000000 81.318359 -8.564453 1.658704 50.606304 1.639841 -2.003805 2.372633 -59.368851 -9.749066 6.067684 -5.207821 6.390684 0.350170 -6.342697 -0.259508 1.706337 7.549430 -0.293983 -12.791722 -20.941902 -16.770435 47.181644 3.515285 3.898584 22.564421 -19.521622 2.745775 
